<?xml version="1.0" encoding="UTF-8"?>
<svg version="1.1" xmlns="http://www.w3.org/2000/svg" width="3600" height="3600">
<path d="M0 0 C1188 0 2376 0 3600 0 C3600 1188 3600 2376 3600 3600 C2412 3600 1224 3600 0 3600 C0 2412 0 1224 0 0 Z " fill="#FEFEFE" transform="translate(0,0)"/>
<path d="M0 0 C3.73820323 0.01069377 7.47592286 0.00006217 11.21411133 -0.01269531 C25.40419106 -0.02190954 39.35953608 0.48867664 53.44262695 2.26074219 C54.53901993 2.39799713 54.53901993 2.39799713 55.65756226 2.5380249 C60.40952878 3.14712138 65.14598836 3.83931857 69.88012695 4.57324219 C70.92824051 4.73373047 70.92824051 4.73373047 71.99752808 4.89746094 C80.88641738 6.26651171 89.72827145 7.78291513 98.50512695 9.76074219 C99.68643188 10.02624878 99.68643188 10.02624878 100.89160156 10.29711914 C108.86198031 12.19871541 116.64419203 14.76235362 124.44262695 17.26074219 C125.68004639 17.65422852 126.91746582 18.04771484 128.19238281 18.453125 C176.20687548 33.89632657 220.47462996 57.45971698 260.44262695 88.26074219 C261.24966064 88.87852539 261.24966064 88.87852539 262.07299805 89.50878906 C271.50763134 96.74318646 280.55614087 104.36466971 289.44262695 112.26074219 C290.41844727 113.123125 291.39426758 113.98550781 292.3996582 114.87402344 C300.28533075 121.99963116 307.79370523 129.50771497 315.31762695 137.01074219 C315.86400818 137.55444458 316.4103894 138.09814697 316.97332764 138.6583252 C323.01543057 144.67796172 328.93175629 150.74378992 334.44262695 157.26074219 C335.41533471 158.3790187 336.38926138 159.49623634 337.36450195 160.61230469 C344.3162792 168.6372239 350.98188425 176.83656201 357.44262695 185.26074219 C357.99789062 185.97939453 358.5531543 186.69804688 359.12524414 187.43847656 C372.63269079 204.95884394 385.14976587 223.23106989 396.44262695 242.26074219 C397.20038211 243.52119333 397.95819851 244.78160766 398.71606445 246.04199219 C437.6310423 311.12595033 464.71581784 382.12745924 479.28991699 456.50231934 C480.13084701 460.7756059 481.05699279 465.02364247 482.01293945 469.27246094 C483.64232183 476.81710522 484.60794128 484.41545445 485.50512695 492.07324219 C485.6770652 493.50835177 485.84943301 494.94340994 486.0222168 496.37841797 C486.27558197 498.48661082 486.52810067 500.5948823 486.77746582 502.70355225 C487.18086685 506.11360067 487.60086143 509.5194786 488.0715332 512.92089844 C496.50170484 576.04761677 491.33595103 641.80296937 482.44262695 704.57324219 C482.26334656 705.8482811 482.26334656 705.8482811 482.08044434 707.14907837 C480.42392104 718.82080047 478.32723523 730.35925655 475.93078613 741.90078735 C475.32359958 744.83616767 474.73383568 747.77488258 474.14485168 750.71395874 C469.34943386 774.60621554 464.08162232 798.28852013 457.19702148 821.67822266 C456.41986936 824.33864826 455.66098776 827.00368728 454.9074707 829.67089844 C454.52365234 831.02779785 454.52365234 831.02779785 454.13208008 832.41210938 C453.65699106 834.09343091 453.18290041 835.77503517 452.71020508 837.45703125 C450.64346573 844.73231112 448.37898355 851.944244 446.10501099 859.15670776 C445.46389947 861.19317095 444.82668517 863.23081398 444.19042969 865.26879883 C422.95142529 933.15496331 395.1092495 998.49158242 364.21606445 1062.49121094 C362.08615854 1066.90817093 359.99380132 1071.34114146 357.91845703 1075.78393555 C354.39946763 1083.30188296 350.70667141 1090.6945247 346.80102539 1098.01879883 C342.69985044 1105.72121211 338.72883389 1113.48804687 334.75402832 1121.25610352 C327.52430256 1135.37634783 320.15095325 1149.39457277 312.44262695 1163.26074219 C311.25103445 1165.41298283 310.05963863 1167.56533237 308.8684082 1169.71777344 C305.70082501 1175.43517496 302.52326967 1181.14695482 299.34057617 1186.85595703 C298.08352871 1189.11101028 296.82733223 1191.36653811 295.57202148 1193.62255859 C288.82219169 1205.751522 282.00765013 1217.82747485 274.92016602 1229.76220703 C272.83404218 1233.28986588 270.76628088 1236.82820085 268.69735718 1240.3659668 C249.06140451 1273.9412805 229.18130813 1307.35144837 208.44262695 1340.26074219 C207.84321289 1341.2154541 207.24379883 1342.17016602 206.6262207 1343.15380859 C197.90167705 1357.02969591 188.86558421 1370.67850379 179.69262695 1384.26074219 C179.17291321 1385.03098724 178.65319946 1385.8012323 178.11773682 1386.59481812 C171.14930886 1396.91273656 164.05188714 1407.1310789 156.84332275 1417.28253174 C154.84151906 1420.10969019 152.85381538 1422.94666538 150.86581421 1425.78353882 C144.47127185 1434.90702455 137.87570567 1443.87639922 131.24243164 1452.82714844 C129.42065181 1455.29045573 127.60629266 1457.75905936 125.79418945 1460.22949219 C119.11810442 1469.32784168 112.36135442 1478.345566 105.44262695 1487.26074219 C104.62545271 1488.32395444 103.8090578 1489.38776609 102.9934082 1490.45214844 C97.33222856 1497.83963704 91.60355474 1505.17162684 85.8425293 1512.48144531 C84.43127306 1514.27517316 83.02423715 1516.0721334 81.6184082 1517.87011719 C75.98146923 1525.07521242 70.26142988 1532.20101175 64.44262695 1539.26074219 C62.9419152 1541.09349295 61.44192057 1542.92683113 59.94262695 1544.76074219 C59.19754883 1545.67082031 58.4524707 1546.58089844 57.68481445 1547.51855469 C56.20857835 1549.3239863 54.7345596 1551.1312336 53.26293945 1552.94042969 C48.74349112 1558.48921857 44.15961952 1563.97656636 39.5246582 1569.42871094 C36.66440875 1572.79886558 33.85021461 1576.20082629 31.06762695 1579.63574219 C25.90128663 1585.97875789 20.5254526 1592.1341453 15.1496582 1598.29931641 C13.44065164 1600.26301188 11.73752947 1602.23164678 10.03637695 1604.20214844 C4.55725116 1610.54727829 -0.95135333 1616.85646225 -6.58081055 1623.06933594 C-8.42693866 1625.11613015 -10.24730589 1627.18205775 -12.05737305 1629.26074219 C-15.45232243 1633.15864704 -18.91403189 1636.99421276 -22.37768555 1640.83105469 C-24.24882399 1642.91680399 -26.09662136 1645.01891847 -27.93237305 1647.13574219 C-31.34419818 1651.05302289 -34.85456393 1654.87746856 -38.37158203 1658.69995117 C-41.26676008 1661.84787111 -44.14090631 1665.01278022 -46.99487305 1668.19824219 C-51.94912249 1673.71667662 -56.98433158 1679.1586598 -62.0222168 1684.60058594 C-63.50491705 1686.20401496 -64.9848314 1687.80995845 -66.46362305 1689.41699219 C-72.07454043 1695.51281533 -77.7109378 1701.58445783 -83.36987305 1707.63574219 C-83.98000244 1708.28969971 -84.59013184 1708.94365723 -85.21875 1709.61743164 C-88.73475731 1713.37054835 -92.31070223 1717.04573897 -95.97973633 1720.6496582 C-97.60897473 1722.31343787 -99.11920636 1724.04325712 -100.61987305 1725.82324219 C-104.60422992 1730.4581063 -108.95460801 1734.71279498 -113.31933594 1738.9855957 C-116.22513993 1741.8489494 -119.00847602 1744.74568879 -121.65112305 1747.85449219 C-127.6484601 1754.80230007 -134.35603791 1761.11235853 -140.87817383 1767.56103516 C-142.65879244 1769.32338115 -144.4362524 1771.08887151 -146.21362305 1772.85449219 C-146.74612671 1773.37869751 -147.27863037 1773.90290283 -147.82727051 1774.44299316 C-150.50579209 1777.10441558 -153.05438977 1779.81678291 -155.49610901 1782.69749451 C-160.62186973 1788.57541767 -166.18301588 1794.02612297 -171.69970703 1799.5324707 C-172.91947734 1800.75359828 -174.1390353 1801.97493801 -175.35839844 1803.19647217 C-178.65154214 1806.4941514 -181.9478131 1809.78868763 -185.24481463 1813.08250928 C-188.70589632 1816.54104725 -192.16452388 1820.00203805 -195.62355042 1823.46263123 C-201.43115609 1829.27205274 -207.24085903 1835.07937061 -213.05175781 1840.88549805 C-219.75590766 1847.58420641 -226.45644762 1854.28650944 -233.15512413 1860.99069077 C-238.92164906 1866.76176353 -244.6901328 1872.53087294 -250.46023804 1878.29836601 C-253.89985919 1881.73643358 -257.33881409 1885.17516026 -260.77599907 1888.61566353 C-264.0085307 1891.85109817 -267.24352631 1895.08404936 -270.48038483 1898.31515503 C-271.66312764 1899.49658323 -272.84503455 1900.67884901 -274.02601051 1901.86204338 C-275.64734212 1903.48613798 -277.27177199 1905.10707319 -278.8969574 1906.72731018 C-279.80228431 1907.63226007 -280.70761122 1908.53720995 -281.64037228 1909.46958256 C-283.84440134 1911.62312605 -286.13456397 1913.65218947 -288.46483612 1915.66820526 C-292.36812096 1919.05600937 -296.05148414 1922.61453406 -299.69837952 1926.27476501 C-300.36997854 1926.94480405 -301.04157757 1927.61484308 -301.73352808 1928.30518633 C-303.96111564 1930.5288168 -306.18514926 1932.7559665 -308.40917969 1934.9831543 C-310.01453836 1936.58715658 -311.6201094 1938.19094635 -313.22587585 1939.79454041 C-317.57104697 1944.13516548 -321.91306429 1948.47893243 -326.25437474 1952.82341838 C-330.80597686 1957.37755872 -335.36002571 1961.92925133 -339.91368103 1966.4813385 C-348.04836467 1974.61408843 -356.18052815 1982.74935243 -364.31169819 1990.885615 C-371.67221026 1998.25059431 -379.03534009 2005.61294797 -386.40039062 2012.97338867 C-394.96978112 2021.53741799 -403.53747654 2030.1031362 -412.10271162 2038.67132193 C-416.63065905 2043.20082544 -421.15927241 2047.72965761 -425.6896534 2052.25672722 C-429.94941209 2056.51358955 -434.20670231 2060.77290553 -438.46212959 2065.03409767 C-440.02089448 2066.5941807 -441.58050333 2068.15342102 -443.14103317 2069.71173859 C-445.27746827 2071.84542487 -447.41077355 2073.98219397 -449.54335022 2076.11973572 C-450.15561889 2076.72977367 -450.76788756 2077.33981162 -451.39870983 2077.96833557 C-455.09414297 2081.68037577 -458.59382719 2085.51635807 -462.00873274 2089.4882794 C-464.16888936 2091.96063996 -466.47038578 2094.26851395 -468.80737305 2096.57324219 C-469.26917969 2097.03126221 -469.73098633 2097.48928223 -470.20678711 2097.96118164 C-472.1387687 2099.87716135 -474.07682089 2101.78695383 -476.0144043 2103.69726562 C-481.1759488 2108.79272566 -486.23080859 2113.91409183 -490.94799805 2119.42871094 C-493.666835 2122.52369767 -496.61499606 2125.38031856 -499.55737305 2128.26074219 C-503.85654987 2132.51031529 -508.01277381 2136.78865895 -511.9206543 2141.40527344 C-514.58667624 2144.42761335 -517.49407753 2147.20508457 -520.36206055 2150.03417969 C-522.99744048 2152.70707392 -525.43503794 2155.51442521 -527.87768555 2158.36230469 C-530.04978545 2160.81728272 -532.37481699 2163.09106455 -534.71362305 2165.38574219 C-536.49434346 2167.1966443 -538.15945885 2169.06209827 -539.81518555 2170.98730469 C-543.42102542 2175.13468793 -547.15595706 2179.14397848 -550.93237305 2183.13574219 C-555.80965165 2188.31411687 -560.64139372 2193.52283329 -565.37768555 2198.83105469 C-567.95562719 2201.70467423 -570.5679665 2204.54533933 -573.18237305 2207.38574219 C-576.76398397 2211.28076702 -580.29325539 2215.21325902 -583.7565918 2219.21386719 C-585.9451297 2221.70148944 -588.18976495 2224.1342767 -590.43237305 2226.57324219 C-593.72169543 2230.17465389 -596.8775494 2233.83381494 -599.93237305 2237.63574219 C-605.16673811 2244.12936204 -610.84940217 2250.18576134 -616.55737305 2256.26074219 C-620.31182213 2254.60516585 -623.4092527 2252.20922773 -626.61987305 2249.69824219 C-627.19568115 2249.25134033 -627.77148926 2248.80443848 -628.36474609 2248.34399414 C-632.81216599 2244.87766784 -637.19125287 2241.33236759 -641.54174805 2237.74511719 C-645.22158168 2234.7135444 -648.9193304 2231.70447659 -652.61987305 2228.69824219 C-653.31443604 2228.13387451 -654.00899902 2227.56950684 -654.72460938 2226.98803711 C-658.32474574 2224.0652515 -661.93212826 2221.15237926 -665.55737305 2218.26074219 C-675.49475733 2210.32753625 -685.36678092 2202.32200723 -695.04492188 2194.07397461 C-698.95531287 2190.74840607 -702.94501129 2187.53861075 -706.9675293 2184.35058594 C-710.58948299 2181.42789329 -714.12867231 2178.41139992 -717.67285156 2175.39526367 C-721.08206395 2172.49770796 -724.52089583 2169.64329428 -727.99487305 2166.82324219 C-732.85945929 2162.86501262 -737.61799482 2158.79425157 -742.36791992 2154.70019531 C-745.86953656 2151.68842231 -749.40514897 2148.73022528 -752.99487305 2145.82324219 C-758.68285414 2141.20280007 -764.20302156 2136.40004997 -769.72924805 2131.58886719 C-773.34471634 2128.44132604 -776.97821483 2125.31541967 -780.61987305 2122.19824219 C-781.48104736 2121.46081787 -781.48104736 2121.46081787 -782.35961914 2120.70849609 C-784.09190313 2119.2255597 -785.82456735 2117.74306892 -787.55737305 2116.26074219 C-813.62246742 2093.96338591 -813.62246742 2093.96338591 -824.3815918 2084.22558594 C-828.76117287 2080.27059621 -833.21142779 2076.40028146 -837.7097168 2072.58105469 C-844.29055484 2066.98632479 -850.75503203 2061.30339107 -857.0769043 2055.41699219 C-860.53643842 2052.19604663 -864.04381927 2049.04701529 -867.6159668 2045.95214844 C-874.26510654 2040.15923595 -880.745195 2034.17571169 -887.23608398 2028.20703125 C-889.98009843 2025.68918155 -892.74388978 2023.20065091 -895.55737305 2020.76074219 C-900.45959655 2016.50674659 -905.21839825 2012.09606843 -909.99291992 2007.70019531 C-912.51099047 2005.38331892 -915.03439302 2003.07226931 -917.55737305 2000.76074219 C-918.55869538 1999.84279553 -919.55999745 1998.92482676 -920.5612793 1998.00683594 C-922.54769187 1996.18590388 -924.53471691 1994.36564363 -926.5222168 1992.54589844 C-938.58827128 1981.49660167 -950.58795267 1970.38069137 -962.51342773 1959.1796875 C-965.178604 1956.67750338 -967.84645623 1954.17818306 -970.5144043 1951.67895508 C-973.17343418 1949.18742572 -975.83066493 1946.69398074 -978.48803711 1944.20068359 C-980.64228233 1942.18114224 -982.79902453 1940.16428833 -984.95581055 1938.14746094 C-992.08102847 1931.4745381 -999.1552688 1924.78170445 -1005.9675293 1917.78808594 C-1007.99216376 1915.81231143 -1010.03264187 1913.9758903 -1012.1784668 1912.13964844 C-1018.09111761 1907.01396556 -1023.50397813 1901.37200338 -1028.99389648 1895.80371094 C-1030.40871018 1894.37054812 -1031.82673003 1892.94060952 -1033.24487305 1891.51074219 C-1034.07374023 1890.67027344 -1034.90260742 1889.82980469 -1035.7565918 1888.96386719 C-1037.83498445 1886.9579429 -1039.91694665 1885.07918281 -1042.10887146 1883.20726013 C-1047.1331092 1878.82321976 -1051.82614296 1874.13201128 -1056.53417969 1869.41333008 C-1057.50900548 1868.43986249 -1058.48404318 1867.46660707 -1059.45927429 1866.49354553 C-1062.08548246 1863.8718618 -1064.708559 1861.24706629 -1067.33091283 1858.62152791 C-1070.08876751 1855.86112367 -1072.84908151 1853.10318035 -1075.60899353 1850.34483337 C-1080.24145325 1845.71418781 -1084.87181242 1841.08144969 -1089.50097656 1836.44750977 C-1094.83639639 1831.10664878 -1100.17540885 1825.76939951 -1105.51630121 1820.43401152 C-1110.11965799 1815.83520739 -1114.72104484 1811.23443907 -1119.32082075 1806.63205332 C-1122.06024802 1803.89107509 -1124.80032718 1801.15075772 -1127.54219246 1798.41221809 C-1130.12101089 1795.83630976 -1132.69732999 1793.25792649 -1135.27182198 1790.67769432 C-1136.65595055 1789.29163457 -1138.04251107 1787.90800469 -1139.4291687 1786.5244751 C-1143.8209041 1782.11798775 -1148.07572775 1777.65563996 -1152.11730862 1772.92454433 C-1154.16511284 1770.55858002 -1156.36062849 1768.36261878 -1158.58862305 1766.16699219 C-1159.48194336 1765.28140625 -1160.37526367 1764.39582031 -1161.2956543 1763.48339844 C-1162.66270508 1762.13568359 -1162.66270508 1762.13568359 -1164.05737305 1760.76074219 C-1169.5395337 1755.3561227 -1174.92167403 1749.95881637 -1179.93041992 1744.11035156 C-1182.65682259 1741.01082776 -1185.60896913 1738.14707444 -1188.55737305 1735.26074219 C-1192.83483308 1731.03257713 -1196.96708612 1726.77653583 -1200.85424805 1722.18261719 C-1203.79115853 1718.86848885 -1206.99431718 1715.81699375 -1210.14331055 1712.70605469 C-1212.84488598 1709.9695074 -1215.3481604 1707.11094853 -1217.84643555 1704.19042969 C-1220.23047928 1701.5015767 -1222.78553333 1699.00596674 -1225.36987305 1696.51074219 C-1227.26269469 1694.56383993 -1229.04427062 1692.57627271 -1230.82299805 1690.52636719 C-1234.54070429 1686.2464519 -1238.40512575 1682.12207239 -1242.30737305 1678.01074219 C-1247.89074844 1672.10361839 -1253.43059823 1666.16396383 -1258.90893555 1660.15917969 C-1261.82057965 1656.97269013 -1264.75061343 1653.80370336 -1267.68237305 1650.63574219 C-1271.9170664 1646.0559648 -1276.10988572 1641.44169447 -1280.2722168 1636.79589844 C-1282.89010459 1633.89160924 -1285.53492434 1631.01305247 -1288.18237305 1628.13574219 C-1291.73998265 1624.26713786 -1295.2402706 1620.35739886 -1298.68237305 1616.38574219 C-1301.10287446 1613.64250725 -1303.57941482 1610.95192976 -1306.05737305 1608.26074219 C-1309.70221728 1604.30141189 -1313.29997604 1600.30946255 -1316.82299805 1596.24121094 C-1318.83001843 1593.94941064 -1320.88140156 1591.70077467 -1322.93237305 1589.44824219 C-1326.00484078 1586.04990667 -1328.94179927 1582.58483696 -1331.80737305 1579.01074219 C-1335.90495133 1573.93891452 -1340.28715658 1569.2032745 -1344.75292969 1564.4597168 C-1348.83789289 1560.09727988 -1352.64487024 1555.57105191 -1356.3815918 1550.90527344 C-1358.68769005 1548.10234971 -1361.09888835 1545.43070944 -1363.55737305 1542.76074219 C-1367.65088396 1538.31347107 -1371.48179803 1533.71356756 -1375.27612305 1529.01074219 C-1377.62456273 1526.1797464 -1380.06647207 1523.46690621 -1382.55737305 1520.76074219 C-1386.57588956 1516.390374 -1390.3552438 1511.88599744 -1394.0847168 1507.26855469 C-1396.97417684 1503.75372967 -1399.9441913 1500.31663368 -1402.93237305 1496.88574219 C-1408.41334598 1490.59109412 -1413.82864874 1484.245719 -1419.20581055 1477.86230469 C-1420.59052775 1476.22145483 -1421.97956195 1474.58435414 -1423.36987305 1472.94824219 C-1429.91880834 1465.23827682 -1436.34835134 1457.4387473 -1442.72924805 1449.58886719 C-1446.81014004 1444.58181531 -1450.93553366 1439.61879524 -1455.11987305 1434.69824219 C-1459.03374732 1430.09384289 -1462.85997245 1425.43307143 -1466.6159668 1420.69824219 C-1468.63792004 1418.15961277 -1470.68709574 1415.64540888 -1472.74487305 1413.13574219 C-1480.68796209 1403.44737234 -1488.60263824 1393.73556753 -1496.40893555 1383.93652344 C-1498.12365575 1381.80091736 -1499.84829888 1379.6748383 -1501.58081055 1377.55371094 C-1507.49290237 1370.31384435 -1513.30587466 1363.02767616 -1518.97143555 1355.59277344 C-1521.87879934 1351.81274659 -1524.90782275 1348.13463525 -1527.93237305 1344.44824219 C-1532.80176757 1338.50689665 -1537.46090816 1332.44392002 -1542.03076172 1326.27026367 C-1545.6457554 1321.41200246 -1549.40392007 1316.69190362 -1553.24487305 1312.01074219 C-1557.70438161 1306.57408428 -1562.0237891 1301.06913412 -1566.2097168 1295.41699219 C-1568.979673 1291.69299117 -1571.79657984 1288.00687045 -1574.61987305 1284.32324219 C-1575.73842409 1282.86235174 -1576.85691187 1281.40141286 -1577.9753418 1279.94042969 C-1578.55590332 1279.18213867 -1579.13646484 1278.42384766 -1579.73461914 1277.64257812 C-1590.17365613 1264.00163988 -1600.54787643 1250.31455669 -1610.83618164 1236.55957031 C-1612.44488901 1234.41097618 -1614.05688075 1232.26490771 -1615.6706543 1230.12011719 C-1627.26582752 1214.70620853 -1638.67237521 1199.15837989 -1649.93969727 1183.50341797 C-1651.57946678 1181.23011239 -1653.22568614 1178.9616129 -1654.8737793 1176.69433594 C-1661.44063514 1167.6529426 -1667.87527334 1158.53728886 -1674.16381836 1149.30029297 C-1675.56551711 1147.24882286 -1676.97797062 1145.20516421 -1678.39331055 1143.16308594 C-1693.74661171 1120.95957988 -1708.57364807 1098.35197759 -1722.55737305 1075.26074219 C-1722.94715332 1074.62072266 -1723.33693359 1073.98070312 -1723.73852539 1073.32128906 C-1726.37742893 1068.98685814 -1728.97515261 1064.62913799 -1731.55737305 1060.26074219 C-1732.06349121 1059.40706055 -1732.56960938 1058.55337891 -1733.09106445 1057.67382812 C-1741.93981557 1042.7236475 -1750.43155124 1027.61572732 -1758.55737305 1012.26074219 C-1759.15694824 1011.13007324 -1759.75652344 1009.9994043 -1760.37426758 1008.83447266 C-1780.53110447 970.74472171 -1798.16505936 931.36476348 -1811.54174805 890.36230469 C-1812.47301641 887.51835436 -1813.43209287 884.68574557 -1814.40112305 881.85449219 C-1822.32657525 858.32011717 -1828.22774856 833.70543143 -1832.55737305 809.26074219 C-1832.75339111 808.19509033 -1832.75339111 808.19509033 -1832.95336914 807.10791016 C-1833.92005954 801.83926911 -1834.7725424 796.55940391 -1835.55737305 791.26074219 C-1835.68499023 790.41141113 -1835.81260742 789.56208008 -1835.9440918 788.68701172 C-1838.03571384 774.35370572 -1839.02823967 760.02896975 -1839.74487305 745.57324219 C-1839.78766388 744.71897644 -1839.83045471 743.86471069 -1839.87454224 742.98455811 C-1840.66989731 726.76352634 -1840.62208263 710.72205444 -1839.68237305 694.51074219 C-1839.63658112 693.7130542 -1839.59078918 692.91536621 -1839.54360962 692.09350586 C-1833.81539886 593.30445396 -1792.48946923 499.02077897 -1728.1159668 424.25683594 C-1725.64412722 421.36233066 -1723.25199238 418.41672935 -1720.86987305 415.44824219 C-1717.6756901 411.51956797 -1714.34683036 407.88984946 -1710.67456055 404.40527344 C-1708.81521458 402.52191378 -1707.09931729 400.59326998 -1705.3737793 398.58886719 C-1701.3207785 393.92198768 -1697.00016735 389.55635779 -1692.61987305 385.19824219 C-1691.8599707 384.43447266 -1691.10006836 383.67070313 -1690.31713867 382.88378906 C-1686.12258371 378.69639816 -1681.8422864 374.67562545 -1677.35058594 370.80883789 C-1674.93232252 368.72113083 -1672.59140835 366.5534591 -1670.24487305 364.38574219 C-1664.84245848 359.46502439 -1659.25568446 354.83281666 -1653.55737305 350.26074219 C-1652.43716788 349.34848929 -1651.317396 348.43570416 -1650.19799805 347.52246094 C-1630.28795029 331.34775438 -1609.29940055 316.82696504 -1587.44262695 303.41796875 C-1586.22439397 302.67018005 -1585.00779993 301.91971176 -1583.79321289 301.16601562 C-1536.46544902 271.8123473 -1484.0570985 249.2394566 -1429.98901367 235.87207031 C-1426.66226039 235.03570583 -1423.36270648 234.11558142 -1420.05737305 233.19824219 C-1391.33995165 225.56770354 -1362.12735705 221.64215207 -1332.55737305 219.26074219 C-1331.37385254 219.162854 -1330.19033203 219.06496582 -1328.97094727 218.96411133 C-1317.43500451 218.12033005 -1305.90503372 218.0746089 -1294.34204102 218.07543945 C-1290.95926189 218.07325952 -1287.57681335 218.05505404 -1284.1940918 218.03613281 C-1270.19953603 217.99984031 -1256.46354175 218.70926594 -1242.55737305 220.26074219 C-1241.31987305 220.39182373 -1240.08237305 220.52290527 -1238.80737305 220.65795898 C-1235.82509604 220.9831783 -1232.84742051 221.33247475 -1229.86987305 221.69824219 C-1228.32106445 221.88664673 -1228.32106445 221.88664673 -1226.7409668 222.07885742 C-1220.16411929 222.89538116 -1213.60518098 223.79946999 -1207.05737305 224.82324219 C-1206.32301025 224.93788818 -1205.58864746 225.05253418 -1204.83203125 225.1706543 C-1192.30338992 227.20509657 -1179.99352756 230.52668662 -1167.66821289 233.515625 C-1164.99577125 234.15573581 -1162.32002837 234.77329445 -1159.6394043 235.37792969 C-1079.82469019 253.75229579 -1001.24190073 295.72033305 -925.23364258 355.88427734 C-922.98973993 357.72685281 -920.71216307 359.525359 -918.43237305 361.32324219 C-908.49009689 369.26707088 -898.96981155 377.68307735 -889.6706543 386.36621094 C-887.74771461 388.16170203 -885.81009123 389.93038433 -883.8503418 391.68652344 C-876.75750896 398.04876405 -869.98896526 404.72097718 -863.24487305 411.44824219 C-862.76865509 411.92187195 -862.29243713 412.39550171 -861.80178833 412.88348389 C-856.73733726 417.92621504 -851.79027496 423.00901402 -847.13769531 428.43530273 C-844.57384191 431.39682473 -841.86972546 434.22425379 -839.18237305 437.07324219 C-834.51502671 442.06139355 -830.06792447 447.15673099 -825.7956543 452.49121094 C-823.74496004 455.02863193 -821.64881547 457.51476089 -819.52685547 459.9921875 C-814.08895224 466.34442844 -808.90327938 472.84735862 -803.8684082 479.52441406 C-802.50376096 481.33174575 -801.13042432 483.13226032 -799.7565918 484.93261719 C-781.97694317 508.32422792 -765.2592963 532.80840075 -750.55737305 558.26074219 C-749.92001221 559.35273926 -749.92001221 559.35273926 -749.26977539 560.46679688 C-723.20048997 605.15962034 -701.76903449 651.464865 -684.55737305 700.26074219 C-683.99276367 701.85958252 -683.99276367 701.85958252 -683.41674805 703.49072266 C-678.4203179 717.75815567 -674.27694978 732.17074235 -670.48071289 746.79956055 C-669.80447788 749.3344584 -669.10856789 751.85792744 -668.38793945 754.38012695 C-665.49239553 764.53264147 -663.00414566 774.71411692 -660.81713867 785.04223633 C-660.29918898 787.48686959 -659.77262162 789.92953546 -659.24487305 792.37207031 C-658.90583932 793.9533451 -658.56727947 795.53472158 -658.22924805 797.11621094 C-658.07510437 797.83294479 -657.92096069 798.54967865 -657.762146 799.28813171 C-656.85186806 803.60163536 -656.13485479 807.89362566 -655.55737305 812.26074219 C-653.2713414 808.83169472 -652.48014119 805.56233949 -651.53393555 801.62011719 C-651.34648773 800.86087952 -651.15903992 800.10164185 -650.96591187 799.31939697 C-650.36582873 796.88450712 -649.77377751 794.44775306 -649.18237305 792.01074219 C-648.4060276 788.83830066 -647.62653608 785.66663719 -646.84643555 782.49511719 C-646.55854912 781.32181854 -646.55854912 781.32181854 -646.2648468 780.12481689 C-644.74185394 773.94268226 -643.12513762 767.79037643 -641.46850586 761.64257812 C-640.15650273 756.77283876 -638.88846551 751.89193204 -637.61987305 747.01074219 C-637.10046544 745.01722038 -636.5809324 743.02373126 -636.0612793 741.03027344 C-635.68060303 739.56968506 -635.68060303 739.56968506 -635.29223633 738.07958984 C-630.16473579 718.41111105 -624.91974353 698.79050562 -619.16333008 679.29541016 C-617.16013441 672.46117244 -615.31694266 665.59886125 -613.55737305 658.69824219 C-611.30860372 649.8916303 -608.77711494 641.20237857 -606.08813477 632.52075195 C-604.3545103 626.91536618 -602.71204828 621.29988847 -601.18237305 615.63574219 C-584.00149537 552.72445562 -561.89849726 490.31750007 -535.9597168 430.50244141 C-534.67277141 427.52750046 -533.39697053 424.54812823 -532.12532043 421.56663513 C-530.98853016 418.90338022 -529.84698732 416.24217868 -528.70443726 413.58139038 C-527.90800098 411.72463114 -527.11504525 409.8663801 -526.32226562 408.00805664 C-522.69284663 399.60055079 -518.71046664 391.42798283 -514.56838989 383.26428223 C-512.93300742 380.02343192 -511.33463552 376.76453116 -509.7331543 373.50683594 C-501.81980124 357.46405558 -493.60511737 341.70122427 -484.55737305 326.26074219 C-483.9442627 325.20612793 -483.33115234 324.15151367 -482.69946289 323.06494141 C-465.06234475 292.75072904 -445.99443607 263.99649875 -424.55737305 236.26074219 C-424.02692383 235.57286621 -423.49647461 234.88499023 -422.94995117 234.17626953 C-414.25018422 222.91451942 -405.15744918 212.03461769 -395.5847168 201.50292969 C-393.81770106 199.54865794 -392.08823775 197.57014481 -390.36987305 195.57324219 C-381.20134902 185.09492902 -371.51092124 175.1177165 -361.68237305 165.26074219 C-360.36342041 163.93490112 -360.36342041 163.93490112 -359.01782227 162.58227539 C-354.58588747 158.16083485 -350.09390822 153.88151261 -345.34448242 149.80273438 C-342.74815871 147.56251845 -340.2541585 145.22306263 -337.74487305 142.88574219 C-333.17439399 138.66800132 -328.48798434 134.65121579 -323.6394043 130.75292969 C-321.32573186 128.88205135 -319.03550726 126.9934234 -316.7565918 125.08105469 C-291.75213831 104.15026068 -264.68433969 85.73255986 -236.55737305 69.26074219 C-235.80568848 68.81649902 -235.05400391 68.37225586 -234.27954102 67.91455078 C-191.15682765 42.48410177 -144.28570674 22.96340961 -95.55737305 11.26074219 C-94.28821045 10.94991699 -94.28821045 10.94991699 -92.9934082 10.6328125 C-77.59899579 6.90612998 -62.09760391 4.5746935 -46.37402344 2.71923828 C-43.78933977 2.40873896 -41.20766054 2.07232437 -38.62939453 1.71240234 C-25.77267705 -0.0120873 -12.95582091 -0.04398973 0 0 Z " fill="#CB2229" transform="translate(2474.557373046875,716.7392578125)"/>
</svg>
